<svg width="312" height="174" viewBox="0 0 312 174" fill="none" xmlns="http://www.w3.org/2000/svg">
<rect width="312" height="174" fill="#EEEEEE"/>
<path d="M14.9228 12H0V19.1184H14.9228V12Z" fill="#276EF1"/>
<path d="M198.526 151.358H134.993C131.717 150.87 128.401 150.626 125.125 150.545C123.912 150.545 122.739 150.504 121.526 150.545C115.783 150.667 110.081 151.399 104.46 152.741C103.408 153.108 102.276 153.27 101.184 153.636C100.82 153.718 100.496 153.921 100.173 154.002C100.011 154.084 99.8494 154.084 99.6472 154.165C99.5259 154.165 99.445 154.246 99.2832 154.246C97.0185 154.979 94.8347 155.752 92.6509 156.646C92.6104 156.646 92.5295 156.728 92.4891 156.728C91.7612 157.094 91.0332 157.257 90.3053 157.623C89.092 158.07 87.8788 158.599 86.6251 158.965C86.5847 158.965 86.5847 158.965 86.5442 158.965C82.8237 160.104 79.1031 161.202 75.3016 161.975C74.0479 162.26 72.8347 162.423 71.5405 162.707C68.5075 163.236 65.353 163.602 62.2391 163.846C60.7023 163.928 59.1655 164.009 57.5883 164.131L48.5295 164.375H0V39.7008H57.4266C60.1361 39.7008 62.5222 37.789 63.1288 35.1451L65.5957 24.4471C66.2023 21.7217 64.1802 19.1591 61.3898 19.1591H21.7574V12H116.713C133.699 12 148.905 22.4946 155.052 38.3992L189.467 127.766L198.243 150.504L198.526 151.358Z" fill="#276EF1"/>
<path d="M123.386 30.4265L126.379 29.2876C128.037 28.7181 129.897 28.9621 131.232 30.0197C132.769 31.24 133.294 33.3552 132.485 35.1043C131.879 36.3653 132.121 37.911 133.213 38.8873C134.265 39.9855 134.548 41.5719 133.78 42.9143L132.89 44.5007L130.585 48.0395L123.386 30.4265Z" fill="black"/>
<path d="M80.3567 49.2597C80.195 58.2086 84.6435 66.3032 91.5185 71.0624V71.2251C94.2281 73.8284 95.9266 76.5944 94.8751 80.8655C93.8237 85.1366 91.0736 94.4922 91.0736 94.4922L116.956 91.2787L118.655 79.6452C118.857 77.9368 120.758 77.0826 122.537 77.2046L130.787 76.5538C134.791 76.7572 137.945 74.0318 137.622 70.0862L137.338 67.0354C138.147 66.3032 138.309 65.449 137.905 64.3101C137.783 63.944 137.419 63.6593 137.379 63.2525C137.824 62.8457 137.985 61.9101 137.945 61.3C137.864 60.3644 137.136 59.6729 136.772 58.8187C136.894 58.4933 137.136 58.2492 137.338 58.0052L140.21 55.4425C141.221 54.5477 141.019 52.9206 139.846 52.3104L131.798 47.7953C130.827 47.2259 130.221 46.2089 130.302 45.1107L130.383 42.7921C130.423 41.3277 130.099 39.904 129.493 38.5617C128.077 35.511 125.974 32.867 123.508 30.5891C119.099 26.6434 113.438 24.1215 107.088 23.9181C92.6104 23.3486 80.5994 34.7788 80.3567 49.2597Z" fill="#C78982"/>
<path d="M102.5 56C104.433 56 106 54.433 106 52.5C106 50.567 104.433 49 102.5 49C100.567 49 99 50.567 99 52.5C99 54.433 100.567 56 102.5 56Z" fill="white"/>
<path d="M100.729 52.1391L101.513 51.044C101.915 50.4836 102.819 50.3999 103.502 50.8886L112.656 57.4421L111.124 59.5813C110.723 60.1416 109.836 60.2002 109.154 59.7114L101.241 54.0465C100.559 53.5578 100.328 52.6995 100.729 52.1391Z" fill="#E2E2E2"/>
<path d="M80.3577 49.2599C80.2363 57.7206 84.1996 65.4085 90.468 70.2897C90.5489 70.3711 90.6298 70.3711 90.6298 70.4525L91.0342 70.8185C92.8945 72.4049 94.3908 74.3574 94.9974 76.6353C95.968 76.2692 96.5746 75.9031 97.3834 75.3337C99.1224 74.0727 100.457 72.2829 101.144 70.0864L104.784 59.3884L102.115 58.4121C100.861 57.9647 99.8099 57.1918 99.0011 56.297C98.1923 55.3614 97.5048 54.2631 97.1812 52.9615C97.0599 52.514 96.979 51.9852 97.0195 51.4971C97.0599 49.6666 98.1518 47.9582 99.9312 47.1447C101.549 46.4125 103.328 46.6973 104.784 47.6735L106.806 49.1379L106.685 47.226C106.604 46.0871 106.402 45.0295 106.078 43.9719C105.795 42.9143 105.31 41.8567 104.744 40.9212C104.137 39.9042 103.814 38.7653 103.894 37.5857C103.935 35.7959 104.825 34.0468 106.321 32.8672C107.575 31.9316 109.071 31.4435 110.689 31.6469L113.398 31.9316C116.108 32.2163 118.817 31.9316 121.365 31.1587L123.387 30.5486L126.38 29.4096C127.512 28.9622 128.806 29.0029 129.898 29.4096L122.902 26.4402C118.656 24.4064 113.883 23.4302 109.192 23.6742L106.361 23.7963C92.3283 23.6742 80.6003 35.023 80.3577 49.2599Z" fill="#263139"/>
<path d="M109.313 30.3859L112.629 34.4535C113.882 35.9993 114.53 37.8704 114.53 39.8635C114.489 42.4262 113.195 44.7854 111.052 46.2498L106.886 49.0565L94.0662 34.7789L109.313 30.3859Z" fill="#263139"/>
<path d="M205.158 151.358L206.614 139.603L154.122 106.166C150.158 103.767 145.912 101.936 141.423 100.838C137.783 99.9023 134.063 99.4548 130.261 99.4548H123.629C119.342 99.4548 116.107 95.5092 116.916 91.2788L117.805 85.1366H93.7023L92.1655 90.5873C90.4266 96.4041 85.978 101.041 80.2758 103.034C78.2942 103.726 76.2317 104.051 74.1692 104.051H60.0552C51.1581 104.051 42.9486 108.892 38.5809 116.702L12.0919 164.375H48.5699L55.4449 164.171L57.6287 164.131C57.8309 164.131 57.9927 164.131 58.1949 164.09C59.0846 164.049 59.9743 164.009 60.8236 163.927C61.3089 163.887 61.7942 163.887 62.3199 163.846C63.1692 163.765 64.0185 163.683 64.8273 163.602C67.1324 163.358 69.3971 163.073 71.6214 162.666C72.9155 162.382 74.1288 162.219 75.3824 161.934C79.1435 161.121 82.8641 160.063 86.6251 158.924C86.6655 158.924 86.6655 158.924 86.706 158.924C87.9597 158.558 89.1729 158.029 90.3861 157.582C90.7097 157.419 91.0736 157.297 91.3972 157.175C91.8016 157.053 92.1655 156.89 92.57 156.687C92.6104 156.687 92.6913 156.606 92.7317 156.606C94.9156 155.711 97.0994 154.938 99.3641 154.206C99.4854 154.206 99.5663 154.124 99.7281 154.124C99.8898 154.043 100.052 154.043 100.254 153.962C100.618 153.88 100.941 153.677 101.265 153.596C102.316 153.229 103.449 153.067 104.5 152.701C105.794 152.375 107.129 152.09 108.423 151.846C108.746 151.806 109.07 151.724 109.394 151.684C110.485 151.48 111.618 151.318 112.71 151.155C113.357 151.074 113.963 150.992 114.61 150.911C116.713 150.667 118.816 150.545 120.919 150.463C121.081 150.463 121.243 150.463 121.405 150.463C125.934 150.382 130.504 150.626 135.033 151.277H205.158V151.358Z" fill="black"/>
<path d="M156.022 90.262L153.151 94.8178L119.019 149.121C118.695 149.162 103.044 151.196 103.044 151.196L139.482 93.4348L141.463 90.262H156.022Z" fill="#276EF1"/>
<path d="M121.364 150.504C121.202 150.504 121.041 150.504 120.879 150.504C117.037 150.626 113.155 150.992 109.353 151.684C109.03 151.724 108.706 151.806 108.383 151.846C107.048 152.09 105.754 152.375 104.46 152.701C99.5259 150.504 94.1068 149.365 88.6876 149.365C88.0406 149.365 87.3935 149.365 86.7464 149.406C76.9192 149.853 67.6986 154.002 60.7023 161.161C59.8126 162.097 58.9633 163.032 58.1949 164.049C57.9927 164.049 57.831 164.049 57.6288 164.09L55.4449 164.131L48.5699 164.334H44.6067C45.8199 162.097 47.2758 159.9 48.853 157.867C58.3971 145.419 72.8751 138.26 88.5663 138.26C100.618 138.26 112.224 142.613 121.364 150.504Z" fill="white"/>
<path d="M60.7832 163.928C59.7317 163.968 58.6802 164.05 57.5883 164.09L55.4045 164.131L48.5295 164.334H37.7317C38.3787 163.724 38.9044 162.951 39.3089 162.178L40.1177 160.47C40.5221 159.494 41.3309 158.721 42.3015 158.355H42.3824C42.4633 158.314 42.5442 158.314 42.6655 158.274L43.7978 157.948C44.8898 157.623 45.9008 157.013 46.6692 156.158L47.3567 155.426C48.125 154.613 49.2574 154.124 50.4302 154.247C50.7537 154.287 51.0368 154.369 51.3199 154.45C51.603 154.572 51.8861 154.694 52.1287 154.857L55.9706 156.85C57.0626 157.419 57.9927 158.233 58.7206 159.209L60.7832 163.928Z" fill="#C78982"/>
<path d="M139.28 152.091C139.28 152.091 139.239 152.091 139.28 152.091C133.335 150.911 127.349 150.423 121.364 150.545C121.202 150.545 121.041 150.545 120.879 150.545C118.776 150.626 116.673 150.748 114.57 150.992L125.53 139.318C127.107 137.732 129.21 136.837 131.474 136.837H132.121L139.28 152.091Z" fill="#C78982"/>
<path d="M197.353 160.999L134.71 151.358C132.405 146.68 131.474 141.799 131.798 136.633H191.449C195.048 136.633 198.607 136.999 202.125 137.732C208.03 138.952 212.195 143.955 211.993 149.65C211.75 156.809 204.875 162.097 197.353 160.999Z" fill="#263139"/>
</svg>
